<svg width="32" height="32" viewBox="0 0 32 32" fill="none" xmlns="http://www.w3.org/2000/svg">
<path d="M12.725 14.5107C13.0357 14.2857 13.1857 13.9143 13.1857 13.4036C13.1964 13.1607 13.1464 12.9214 13.0393 12.7036C12.9429 12.5286 12.8 12.3821 12.625 12.2786C12.4435 12.1685 12.242 12.0957 12.0321 12.0643C11.8036 12.0214 11.5714 12 11.3429 12.0036H8.83214V14.85H11.55C12.0179 14.8536 12.4143 14.7393 12.725 14.5107ZM13.1464 17.0821C12.7964 16.8143 12.3286 16.6821 11.7464 16.6821H8.825V20.0393H11.6893C11.9571 20.0393 12.2036 20.0143 12.4429 19.9643C12.6693 19.92 12.8851 19.8327 13.0786 19.7071C13.2607 19.5893 13.4071 19.4286 13.5179 19.2214C13.625 19.0143 13.6786 18.75 13.6786 18.4321C13.6786 17.8 13.5 17.3536 13.1464 17.0821ZM16 0C7.16429 0 0 7.16429 0 16C0 24.8357 7.16429 32 16 32C24.8357 32 32 24.8357 32 16C32 7.16429 24.8357 0 16 0ZM19.0893 10.2464H24.0321V11.45H19.0893V10.2464ZM16 20.1714C15.7688 20.6103 15.4387 20.9893 15.0357 21.2786C14.6143 21.5714 14.1464 21.7857 13.65 21.9107C13.1306 22.0499 12.5948 22.1184 12.0571 22.1143H6.14286V9.93214H11.8929C12.475 9.93214 13.0036 9.98571 13.4857 10.0857C13.9643 10.1857 14.3714 10.3571 14.7143 10.5893C15.0536 10.8214 15.3214 11.1321 15.5107 11.5179C15.6964 11.9 15.7929 12.3786 15.7929 12.9464C15.7929 13.5607 15.6536 14.0679 15.375 14.4786C15.0929 14.8893 14.6857 15.2214 14.1321 15.4821C14.8857 15.6964 15.4393 16.0786 15.8036 16.6143C16.175 17.1571 16.3571 17.8071 16.3571 18.5714C16.3571 19.1929 16.2393 19.725 16 20.1714ZM25.9571 18.2857H19.5857C19.5857 18.9786 19.825 19.6429 20.1857 20C20.55 20.3536 21.0714 20.5321 21.7536 20.5321C22.2464 20.5321 22.6643 20.4071 23.0214 20.1607C23.375 19.9143 23.5893 19.6536 23.6679 19.3821H25.8036C25.4607 20.4429 24.9393 21.2 24.2321 21.6571C23.5321 22.1143 22.675 22.3429 21.6786 22.3429C20.9821 22.3429 20.3571 22.2286 19.7964 22.0107C19.2571 21.8 18.7714 21.4786 18.3714 21.0643C17.977 20.6388 17.6722 20.1384 17.475 19.5929C17.2571 18.9893 17.15 18.3536 17.1571 17.7143C17.1571 17.0536 17.2679 16.4393 17.4821 15.8679C17.8929 14.7571 18.7464 13.8679 19.8357 13.4071C20.4179 13.1643 21.0429 13.0429 21.675 13.05C22.425 13.05 23.075 13.1929 23.6393 13.4857C24.1825 13.7654 24.6542 14.1662 25.0179 14.6571C25.3786 15.1464 25.6321 15.7036 25.7929 16.3321C25.9464 16.95 26 17.6 25.9571 18.2857ZM21.6 14.8714C21.2143 14.8714 20.8893 14.9393 20.6393 15.0714C20.3893 15.2036 20.1821 15.3679 20.025 15.5571C19.8753 15.7399 19.7647 15.9514 19.7 16.1786C19.6429 16.3679 19.6036 16.5607 19.5893 16.7571H23.5357C23.4786 16.1393 23.2643 15.6821 22.9786 15.3607C22.6786 15.0429 22.1964 14.8714 21.6 14.8714Z" fill="black"/>
</svg>
