<svg width="32" height="32" viewBox="0 0 32 32" fill="none" xmlns="http://www.w3.org/2000/svg">
<path d="M16 0C18.9028 0 21.5799 0.733192 24.0313 2.19958C26.4826 3.66596 28.4236 5.65554 29.8542 8.16833C31.2847 10.6811 32 13.4252 32 16.4007C32 19.9741 30.9826 23.1881 28.9479 26.0426C26.9132 28.897 24.2847 30.8724 21.0625 31.9686C20.6875 32.0398 20.4097 31.99 20.2292 31.8191C20.0486 31.6483 19.9583 31.4347 19.9583 31.1785C19.9583 31.1357 19.9618 30.5912 19.9688 29.5448C19.9757 28.4984 19.9792 27.541 19.9792 26.6725C19.9792 25.2916 19.6181 24.2808 18.8958 23.6401C19.6875 23.5547 20.3993 23.4266 21.0313 23.2557C21.6632 23.0849 22.316 22.8073 22.9896 22.4229C23.6632 22.0385 24.2257 21.5651 24.6771 21.0027C25.1285 20.4404 25.4965 19.693 25.7813 18.7605C26.066 17.828 26.2083 16.7566 26.2083 15.5465C26.2083 13.8523 25.6597 12.386 24.5625 11.1474C25.0764 9.85182 25.0208 8.39968 24.3958 6.79092C24.0069 6.66279 23.4444 6.7411 22.7083 7.02583C21.9722 7.31057 21.3333 7.62377 20.7917 7.96546L20 8.47798C18.7083 8.10782 17.375 7.92274 16 7.92274C14.625 7.92274 13.2917 8.10782 12 8.47798C11.7778 8.32137 11.4826 8.12918 11.1146 7.90139C10.7465 7.6736 10.1667 7.39954 9.375 7.07922C8.58333 6.75889 7.99306 6.66279 7.60417 6.79092C6.97917 8.39968 6.92361 9.85182 7.4375 11.1474C6.34028 12.386 5.79167 13.8523 5.79167 15.5465C5.79167 16.7566 5.93403 17.8244 6.21875 18.7498C6.50347 19.6752 6.86806 20.4226 7.3125 20.9921C7.75694 21.5615 8.31597 22.0385 8.98958 22.4229C9.66319 22.8073 10.316 23.0849 10.9479 23.2557C11.5799 23.4266 12.2917 23.5547 13.0833 23.6401C12.5417 24.1526 12.2014 24.8858 12.0625 25.8397C11.7708 25.982 11.4583 26.0888 11.125 26.16C10.7917 26.2312 10.3958 26.2668 9.9375 26.2668C9.47917 26.2668 9.02431 26.1137 8.57292 25.8076C8.12153 25.5016 7.73611 25.0567 7.41667 24.473C7.15278 24.0174 6.81597 23.6472 6.40625 23.3625C5.99653 23.0778 5.65278 22.9069 5.375 22.85L4.95833 22.7859C4.66667 22.7859 4.46528 22.8179 4.35417 22.882C4.24306 22.9461 4.20833 23.0279 4.25 23.1276C4.29167 23.2272 4.35417 23.3269 4.4375 23.4266C4.52083 23.5262 4.61111 23.6116 4.70833 23.6828L4.85417 23.7896C5.15972 23.932 5.46181 24.2025 5.76042 24.6011C6.05903 24.9997 6.27778 25.3627 6.41667 25.6902L6.625 26.1814C6.80556 26.7224 7.11111 27.1601 7.54167 27.4947C7.97222 27.8293 8.4375 28.0428 8.9375 28.1354C9.4375 28.2279 9.92014 28.2777 10.3854 28.2848C10.8507 28.292 11.2361 28.267 11.5417 28.2101L12.0208 28.1247C12.0208 28.6657 12.0243 29.2956 12.0313 30.0146C12.0382 30.7336 12.0417 31.1215 12.0417 31.1785C12.0417 31.4347 11.9514 31.6483 11.7708 31.8191C11.5903 31.99 11.3125 32.0398 10.9375 31.9686C7.71528 30.8724 5.08681 28.897 3.05208 26.0426C1.01736 23.1881 0 19.9741 0 16.4007C0 13.4252 0.715278 10.6811 2.14583 8.16833C3.57639 5.65554 5.51736 3.66596 7.96875 2.19958C10.4201 0.733192 13.0972 0 16 0ZM6.0625 23.5547C6.10417 23.455 6.05556 23.3696 5.91667 23.2984C5.77778 23.2557 5.6875 23.2699 5.64583 23.3411C5.60417 23.4408 5.65278 23.5262 5.79167 23.5974C5.91667 23.6828 6.00694 23.6686 6.0625 23.5547ZM6.70833 24.2808C6.80556 24.2096 6.79167 24.0957 6.66667 23.9391C6.52778 23.8109 6.41667 23.7896 6.33333 23.875C6.23611 23.9462 6.25 24.0601 6.375 24.2167C6.51389 24.3591 6.625 24.3804 6.70833 24.2808ZM7.33333 25.2417C7.45833 25.1421 7.45833 25.0068 7.33333 24.836C7.22222 24.6509 7.10417 24.6082 6.97917 24.7079C6.85417 24.779 6.85417 24.9072 6.97917 25.0923C7.10417 25.2773 7.22222 25.3272 7.33333 25.2417ZM8.20833 26.1387C8.31944 26.0248 8.29167 25.8895 8.125 25.7329C7.95833 25.5621 7.81944 25.5407 7.70833 25.6688C7.58333 25.7827 7.61111 25.918 7.79167 26.0746C7.95833 26.2454 8.09722 26.2668 8.20833 26.1387ZM9.39583 26.6725C9.4375 26.5159 9.34722 26.402 9.125 26.3308C8.91667 26.2739 8.78472 26.3237 8.72917 26.4803C8.67361 26.6369 8.76389 26.7437 9 26.8007C9.20833 26.8861 9.34028 26.8434 9.39583 26.6725ZM10.7083 26.7793C10.7083 26.5942 10.5903 26.5159 10.3542 26.5444C10.1319 26.5444 10.0208 26.6227 10.0208 26.7793C10.0208 26.9644 10.1389 27.0427 10.375 27.0142C10.5972 27.0142 10.7083 26.9359 10.7083 26.7793ZM11.9167 26.5658C11.8889 26.4091 11.7639 26.3451 11.5417 26.3736C11.3194 26.4163 11.2222 26.523 11.25 26.6939C11.2778 26.8647 11.4028 26.9217 11.625 26.8647C11.8472 26.8078 11.9444 26.7081 11.9167 26.5658Z" fill="black"/>
</svg>
