<svg width="32" height="32" viewBox="0 0 32 32" fill="none" xmlns="http://www.w3.org/2000/svg">
<path d="M16 0C7.16333 0 0 7.16333 0 16C0 24.8367 7.16333 32 16 32C24.8367 32 32 24.8367 32 16C32 7.16333 24.8367 0 16 0ZM12.0833 22.6317H8.84333V12.205H12.0833V22.6317ZM10.4433 10.925C9.42 10.925 8.75833 10.2 8.75833 9.30333C8.75833 8.38833 9.44 7.685 10.485 7.685C11.53 7.685 12.17 8.38833 12.19 9.30333C12.19 10.2 11.53 10.925 10.4433 10.925ZM23.9167 22.6317H20.6767V16.8533C20.6767 15.5083 20.2067 14.595 19.035 14.595C18.14 14.595 17.6083 15.2133 17.3733 15.8083C17.2867 16.02 17.265 16.32 17.265 16.6183V22.63H14.0233V15.53C14.0233 14.2283 13.9817 13.14 13.9383 12.2033H16.7533L16.9017 13.6517H16.9667C17.3933 12.9717 18.4383 11.9683 20.1867 11.9683C22.3183 11.9683 23.9167 13.3967 23.9167 16.4667V22.6317Z" fill="black"/>
</svg>
