<svg width="147" height="100" viewBox="0 0 147 100" fill="none" xmlns="http://www.w3.org/2000/svg">
<path fill-rule="evenodd" clip-rule="evenodd" d="M142.726 6.70588H3.4314V2.94118H142.726V6.70588ZM142.726 97.4053H3.4314V93.6406H142.726V97.4053Z" fill="#333333"/>
<path fill-rule="evenodd" clip-rule="evenodd" d="M7.1961 3.28769V97.4084H3.4314V3.28769H7.1961Z" fill="#333333"/>
<path fill-rule="evenodd" clip-rule="evenodd" d="M142.726 3.28769V30.7387H138.961V3.28769H142.726Z" fill="#333333"/>
<path fill-rule="evenodd" clip-rule="evenodd" d="M142.726 81.3726V97.0588H138.961V81.3726H142.726Z" fill="#333333"/>
<path d="M63.0129 54.4965L62.9871 46.0651L58.856 53.0063H57.3922L53.2745 46.2482V54.4965H50.2157V40.4442H52.9085L58.1765 49.1762L63.353 40.4442H66.0196L66.0585 54.4965H63.0129Z" fill="#333333"/>
<path d="M75.3134 40.4442H78.5686V54.4965H75.3134V40.4442Z" fill="#333333"/>
<path d="M94.5542 54.732C93.1224 54.732 91.8285 54.4248 90.6715 53.8039C89.5114 53.1863 88.5997 52.3235 87.9396 51.2157C87.2764 50.1111 86.9464 48.8595 86.9464 47.464C86.9464 46.0784 87.2764 44.8333 87.9396 43.7255C88.5997 42.6209 89.5114 41.7581 90.6715 41.1373C91.8285 40.5098 93.1324 40.1961 94.5799 40.1961C95.789 40.1961 96.8871 40.415 97.874 40.8496C98.8579 41.2777 99.6849 41.8921 100.358 42.6928L98.2662 44.6143C97.3156 43.5163 96.1391 42.9673 94.7368 42.9673C93.8646 42.9673 93.0834 43.1601 92.397 43.5425C91.7175 43.9281 91.1848 44.464 90.802 45.1503C90.4262 45.83 90.2405 46.6013 90.2405 47.464C90.2405 48.3366 90.4262 49.1176 90.802 49.8039C91.1848 50.4836 91.7175 51.0163 92.397 51.3986C93.0834 51.7745 93.8646 51.9608 94.7368 51.9608C96.1391 51.9608 97.3156 51.4085 98.2662 50.3006L100.358 52.2222C99.6849 53.0424 98.8547 53.6666 97.8609 54.0915C96.8739 54.5163 95.7727 54.732 94.5542 54.732Z" fill="#333333"/>
<path d="M117.731 51.49H111.195L109.954 54.4965H106.62L112.881 40.4442H116.097L122.385 54.4965H118.973L117.731 51.49ZM116.699 49.0194L114.476 43.6338L112.241 49.0194H116.699Z" fill="#333333"/>
<path d="M142.668 40.4442V54.4965H139.413V48.7318H133.021V54.4965H129.766V40.4442H133.021V45.9867H139.413V40.4442H142.668Z" fill="#333333"/>
<path d="M32.1961 73.1897C31.0785 73.1897 30.0033 73.0392 28.9673 72.7455C27.9281 72.4412 27.098 72.049 26.4706 71.569L27.5686 69.1245C28.1765 69.5624 28.8954 69.9151 29.7255 70.183C30.5523 70.4547 31.3791 70.5883 32.2091 70.5883C33.1307 70.5883 33.817 70.4547 34.2615 70.183C34.7059 69.9057 34.9281 69.5392 34.9281 69.085C34.9281 68.7455 34.7974 68.4675 34.536 68.2486C34.2745 68.0233 33.9379 67.8432 33.5294 67.7127C33.1177 67.5816 32.5653 67.4348 31.8693 67.2679C30.7974 67.0163 29.9216 66.7646 29.2418 66.5099C28.5621 66.2583 27.9771 65.853 27.4902 65.2945C27 64.7292 26.7581 63.9737 26.7581 63.0326C26.7581 62.2225 26.9739 61.4872 27.4118 60.8239C27.8562 60.1538 28.5228 59.6274 29.4118 59.2421C30.3007 58.85 31.3889 58.6536 32.6797 58.6536C33.5751 58.6536 34.451 58.7646 35.3072 58.9805C36.1601 59.1995 36.9085 59.5101 37.5556 59.9085L36.549 62.3794C35.2484 61.6409 33.951 61.2682 32.6536 61.2682C31.7451 61.2682 31.0751 61.4188 30.6405 61.7124C30.2026 62.0098 29.9869 62.3988 29.9869 62.8757C29.9869 63.3563 30.2353 63.7127 30.732 63.948C31.2353 64.1833 32.0033 64.4155 33.0327 64.6407C34.1046 64.8955 34.9804 65.1502 35.6601 65.4119C36.3464 65.6666 36.9346 66.0657 37.4248 66.6147C37.9118 67.1637 38.1569 67.9053 38.1569 68.8365C38.1569 69.6409 37.9281 70.3725 37.4771 71.0326C37.0327 71.6964 36.3595 72.2222 35.464 72.6144C34.5653 72.9971 33.4771 73.1897 32.1961 73.1897Z" fill="#333333"/>
<path d="M55.5694 69.9477H49.0334L47.7916 72.9544H44.4583L50.7197 58.9021H53.9354L60.223 72.9544H56.8109L55.5694 69.9477ZM54.5367 67.4768L52.3145 62.0914L50.0792 67.4768H54.5367Z" fill="#333333"/>
<path d="M80.4012 72.9544L80.3755 64.5228L76.2444 71.4642H74.7805L70.6632 64.706V72.9544H67.6044V58.9021H70.2968L75.5648 67.6337L80.7413 58.9021H83.408L83.4475 72.9544H80.4012Z" fill="#333333"/>
<path d="M95.6182 61.5555H91.1212V58.9021H103.37V61.5555H98.8727V72.9544H95.6182V61.5555Z" fill="#333333"/>
<path d="M121.923 70.3399V72.9544H111.034V58.9021H121.662V61.5035H114.276V64.5623H120.799V67.0846H114.276V70.3399H121.923Z" fill="#333333"/>
<path d="M139.397 72.9544L136.679 69.0329H133.685V72.9544H130.43V58.9021H136.522C137.767 58.9021 138.848 59.111 139.764 59.5295C140.679 59.9411 141.384 60.5297 141.881 61.2939C142.378 62.0525 142.626 62.9541 142.626 64.0001C142.626 65.0454 142.371 65.9477 141.868 66.7057C141.371 67.4573 140.659 68.0327 139.737 68.4312L142.888 72.9544H139.397ZM139.332 64.0001C139.332 63.2089 139.074 62.6015 138.561 62.183C138.055 61.7645 137.312 61.5555 136.339 61.5555H133.685V66.4446H136.339C137.312 66.4446 138.055 66.2319 138.561 65.804C139.074 65.3792 139.332 64.7775 139.332 64.0001Z" fill="#333333"/>
</svg>
