<svg width="95" height="64" viewBox="0 0 95 64" fill="none" xmlns="http://www.w3.org/2000/svg">
<rect width="93.8039" height="64" transform="translate(0.607849)" fill="#333333"/>
<path fill-rule="evenodd" clip-rule="evenodd" d="M91.9522 4.29177H2.80396V1.88235H91.9522V4.29177ZM91.9522 62.3394H2.80396V59.93H91.9522V62.3394Z" fill="#E9EDEF"/>
<path fill-rule="evenodd" clip-rule="evenodd" d="M5.21337 2.10412V62.3414H2.80396V2.10412H5.21337Z" fill="#E9EDEF"/>
<path fill-rule="evenodd" clip-rule="evenodd" d="M91.9522 2.10412V19.6727H89.5428V2.10412H91.9522Z" fill="#E9EDEF"/>
<path fill-rule="evenodd" clip-rule="evenodd" d="M91.9522 52.0784V62.1176H89.5428V52.0784H91.9522Z" fill="#E9EDEF"/>
<path d="M40.9361 34.8778L40.9196 29.4817L38.2757 33.924H37.3389L34.7036 29.5988V34.8778H32.7459V25.8843H34.4693L37.8408 31.4728L41.1538 25.8843H42.8604L42.8853 34.8778H40.9361Z" fill="#E9EDEF"/>
<path d="M48.8085 25.8843H50.8918V34.8778H48.8085V25.8843Z" fill="#E9EDEF"/>
<path d="M61.1226 35.0285C60.2062 35.0285 59.3781 34.8319 58.6377 34.4345C57.8952 34.0392 57.3117 33.487 56.8892 32.778C56.4648 32.0711 56.2535 31.2701 56.2535 30.377C56.2535 29.4902 56.4648 28.6933 56.8892 27.9843C57.3117 27.2774 57.8952 26.7252 58.6377 26.3278C59.3781 25.9263 60.2126 25.7255 61.139 25.7255C61.9128 25.7255 62.6156 25.8656 63.2473 26.1438C63.8769 26.4178 64.4062 26.811 64.8371 27.3234L63.4982 28.5532C62.8899 27.8504 62.1369 27.4991 61.2394 27.4991C60.6812 27.4991 60.1813 27.6225 59.742 27.8672C59.3071 28.114 58.9661 28.457 58.7212 28.8962C58.4806 29.3312 58.3618 29.8248 58.3618 30.377C58.3618 30.9354 58.4806 31.4353 58.7212 31.8745C58.9661 32.3095 59.3071 32.6505 59.742 32.8951C60.1813 33.1357 60.6812 33.2549 61.2394 33.2549C62.1369 33.2549 62.8899 32.9014 63.4982 32.1924L64.8371 33.4222C64.4062 33.9472 63.8749 34.3466 63.2388 34.6185C62.6072 34.8905 61.9024 35.0285 61.1226 35.0285Z" fill="#E9EDEF"/>
<path d="M75.9557 32.9536H71.773L70.9783 34.8778H68.8447L72.852 25.8843H74.91L78.9341 34.8778H76.7508L75.9557 32.9536ZM75.2951 31.3724L73.8728 27.9256L72.442 31.3724H75.2951Z" fill="#E9EDEF"/>
<path d="M91.9153 25.8843V34.8778H89.8323V31.1884H85.7411V34.8778H83.6582V25.8843H85.7411V29.4315H89.8323V25.8843H91.9153Z" fill="#E9EDEF"/>
<path d="M21.2133 46.8414C20.4981 46.8414 19.8099 46.7451 19.1469 46.5571C18.4818 46.3624 17.9506 46.1114 17.549 45.8042L18.2518 44.2397C18.6408 44.52 19.1009 44.7457 19.6321 44.9171C20.1613 45.091 20.6904 45.1765 21.2217 45.1765C21.8115 45.1765 22.2507 45.091 22.5352 44.9171C22.8196 44.7396 22.9618 44.5051 22.9618 44.2144C22.9618 43.9971 22.8781 43.8192 22.7109 43.6791C22.5435 43.5349 22.3281 43.4197 22.0667 43.3361C21.8031 43.2522 21.4496 43.1583 21.0042 43.0514C20.3181 42.8904 19.7576 42.7294 19.3226 42.5663C18.8876 42.4053 18.5132 42.1459 18.2016 41.7885C17.8879 41.4267 17.7331 40.9432 17.7331 40.3408C17.7331 39.8224 17.8711 39.3518 18.1514 38.9273C18.4358 38.4984 18.8625 38.1615 19.4314 37.915C20.0003 37.664 20.6967 37.5383 21.5229 37.5383C22.0959 37.5383 22.6565 37.6094 23.2044 37.7475C23.7503 37.8877 24.2293 38.0864 24.6434 38.3414L23.9992 39.9228C23.1668 39.4502 22.3365 39.2116 21.5061 39.2116C20.9247 39.2116 20.4959 39.308 20.2178 39.4959C19.9375 39.6863 19.7995 39.9353 19.7995 40.2405C19.7995 40.5481 19.9584 40.7761 20.2763 40.9267C20.5984 41.0773 21.0899 41.2259 21.7487 41.3701C22.4348 41.5331 22.9953 41.6961 23.4303 41.8636C23.8695 42.0266 24.246 42.282 24.5597 42.6334C24.8714 42.9848 25.0282 43.4594 25.0282 44.0554C25.0282 44.5702 24.8818 45.0384 24.5932 45.4608C24.3087 45.8857 23.8779 46.2222 23.3048 46.4732C22.7296 46.7182 22.0332 46.8414 21.2133 46.8414Z" fill="#E9EDEF"/>
<path d="M36.1723 44.7665H31.9892L31.1945 46.6908H29.0612L33.0685 37.6973H35.1265L39.1506 46.6908H36.9668L36.1723 44.7665ZM35.5114 43.1852L34.0891 39.7385L32.6585 43.1852H35.5114Z" fill="#E9EDEF"/>
<path d="M52.0646 46.6908L52.0482 41.2946L49.4042 45.7371H48.4674L45.8323 41.4118V46.6908H43.8746V37.6973H45.5978L48.9693 43.2855L52.2823 37.6973H53.9889L54.0142 46.6908H52.0646Z" fill="#E9EDEF"/>
<path d="M61.8035 39.3956H58.9254V37.6973H66.7644V39.3956H63.8864V46.6908H61.8035V39.3956Z" fill="#E9EDEF"/>
<path d="M78.6388 45.0175V46.6908H71.6696V37.6973H78.4714V39.3622H73.7445V41.3199H77.9192V42.9342H73.7445V45.0175H78.6388Z" fill="#E9EDEF"/>
<path d="M89.8221 46.6908L88.0821 44.181H86.1662V46.6908H84.0833V37.6973H87.9817C88.7785 37.6973 89.4708 37.831 90.0566 38.0989C90.6421 38.3623 91.0939 38.739 91.4119 39.2281C91.7296 39.7136 91.8886 40.2906 91.8886 40.9601C91.8886 41.6291 91.7256 42.2065 91.4035 42.6916C91.0855 43.1727 90.6297 43.5409 90.0398 43.7959L92.0561 46.6908H89.8221ZM89.7804 40.9601C89.7804 40.4537 89.6153 40.065 89.2868 39.7971C88.9628 39.5293 88.4877 39.3956 87.8645 39.3956H86.1662V42.5246H87.8645C88.4877 42.5246 88.9628 42.3884 89.2868 42.1146C89.6153 41.8427 89.7804 41.4576 89.7804 40.9601Z" fill="#E9EDEF"/>
</svg>
